<?xml version="1.0" standalone="no"?>
<!DOCTYPE svg PUBLIC "-//W3C//DTD SVG 1.1//EN" "http://www.w3.org/Graphics/SVG/1.1/DTD/svg11.dtd">
<svg version="1.1" width="1059" height="1040" xmlns="http://www.w3.org/2000/svg">
<rect height="100%" width="100%" fill="#f3f3f3"/>
<g stroke="grey" stroke-dasharray="6" stroke-width="0.5"><line x1="40" y1="20" x2="100%" y2="20"/><line x1="40" y1="220" x2="100%" y2="220"/><line x1="40" y1="420" x2="100%" y2="420"/><line x1="40" y1="620" x2="100%" y2="620"/><line x1="40" y1="820" x2="100%" y2="820"/><line x1="240" y1="0" x2="240" y2="1020"/><line x1="440" y1="0" x2="440" y2="1020"/><line x1="640" y1="0" x2="640" y2="1020"/><line x1="840" y1="0" x2="840" y2="1020"/><line x1="1039" y1="0" x2="1039" y2="1020"/></g>
<g fill="none" stroke="black" stroke-width="1"><line x1="0" y1="1020" x2="100%" y2="1020"/><line x1="40" y1="0" x2="40" y2="100%"/></g>
<g fill="grey" stroke="transparent"><text x="240" y="1034" text-anchor="middle">200</text><text x="440" y="1034" text-anchor="middle">400</text><text x="640" y="1034" text-anchor="middle">600</text><text x="840" y="1034" text-anchor="middle">800</text><text x="1039" y="1034" text-anchor="middle">1000</text><text x="35" y="25" text-anchor="end">1000</text><text x="35" y="225" text-anchor="end">800</text><text x="35" y="425" text-anchor="end">600</text><text x="35" y="625" text-anchor="end">400</text><text x="35" y="825" text-anchor="end">200</text><text x="35" y="1017" text-anchor="end">0</text><text x="0" y="0" text-anchor="">0</text></g>
<g transform="translate(40,20) scale(1,1)" fill="none" stroke="chocolate" stroke-width="1"><polyline points="0,1000 1,1000 2,1000 3,1000 4,1000 5,1000 6,1000 7,1000 8,1000 9,1000 10,1000 11,1000 12,1000 13,1000 14,1000 15,1000 16,1000 17,1000 18,1000 19,1000 20,1000 21,1000 22,1000 23,1000 24,1000 25,1000 26,1000 27,1000 28,1000 29,1000 30,1000 31,1000 32,1000 33,1000 34,1000 35,1000 36,1000 37,1000 38,1000 39,1000 40,1000 41,1000 42,1000 43,1000 44,1000 45,1000 46,1000 47,1000 48,1000 49,1000 50,1000 51,1000 52,1000 53,1000 54,1000 55,1000 56,1000 57,1000 58,1000 59,1000 60,1000 61,1000 62,1000 63,1000 64,1000 65,1000 66,1000 67,1000 68,1000 69,1000 70,1000 71,1000 72,1000 73,1000 74,1000 75,1000 76,1000 77,1000 78,1000 79,1000 80,1000 81,1000 82,1000 83,1000 84,1000 85,1000 86,1000 87,1000 88,1000 89,1000 90,1000 91,1000 92,1000 93,1000 94,1000 95,1000 96,1000 97,1000 98,1000 99,1000 100,1000 101,1000 102,1000 103,1000 104,1000 105,1000 106,1000 107,1000 108,1000 109,1000 110,1000 111,1000 112,1000 113,1000 114,1000 115,1000 116,1000 117,1000 118,1000 119,1000 120,1000 121,1000 122,1000 123,1000 124,1000 125,1000 126,1000 127,1000 128,1000 129,1000 130,1000 131,1000 132,1000 133,1000 134,1000 135,1000 136,1000 137,1000 138,1000 139,1000 140,1000 141,1000 142,1000 143,1000 144,1000 145,1000 146,1000 147,1000 148,1000 149,1000 150,1000 151,1000 152,1000 153,1000 154,1000 155,1000 156,1000 157,1000 158,1000 159,1000 160,1000 161,1000 162,1000 163,1000 164,1000 165,1000 166,1000 167,1000 168,1000 169,1000 170,1000 171,1000 172,1000 173,1000 174,1000 175,1000 176,1000 177,1000 178,1000 179,1000 180,1000 181,1000 182,1000 183,1000 184,1000 185,1000 186,1000 187,1000 188,1000 189,1000 190,1000 191,1000 192,1000 193,1000 194,1000 195,1000 196,1000 197,1000 198,1000 199,800 200,800 201,914 202,800 203,800 204,800 205,800 206,800 207,800 208,800 209,800 210,800 211,800 212,800 213,800 214,800 215,800 216,800 217,800 218,800 219,800 220,800 221,800 222,800 223,800 224,800 225,800 226,800 227,800 228,800 229,800 230,800 231,800 232,800 233,800 234,800 235,800 236,800 237,800 238,800 239,800 240,800 241,800 242,800 243,800 244,800 245,800 246,800 247,800 248,800 249,800 250,800 251,800 252,800 253,800 254,800 255,800 256,800 257,800 258,800 259,800 260,800 261,800 262,800 263,800 264,800 265,800 266,800 267,800 268,800 269,800 270,800 271,800 272,800 273,800 274,948 275,800 276,800 277,800 278,800 279,800 280,800 281,800 282,800 283,800 284,800 285,800 286,800 287,800 288,800 289,800 290,800 291,800 292,800 293,800 294,922 295,800 296,800 297,800 298,800 299,800 300,800 301,800 302,800 303,800 304,800 305,800 306,800 307,800 308,800 309,800 310,800 311,800 312,800 313,800 314,800 315,800 316,800 317,800 318,800 319,800 320,800 321,800 322,974 323,800 324,800 325,800 326,800 327,800 328,800 329,980 330,800 331,800 332,800 333,800 334,800 335,800 336,800 337,800 338,800 339,800 340,800 341,800 342,800 343,800 344,800 345,800 346,800 347,800 348,800 349,800 350,800 351,800 352,974 353,994 354,800 355,800 356,996 357,800 358,800 359,800 360,800 361,800 362,800 363,800 364,800 365,800 366,800 367,800 368,953 369,800 370,800 371,800 372,800 373,800 374,800 375,800 376,800 377,800 378,800 379,800 380,800 381,800 382,800 383,800 384,800 385,800 386,800 387,800 388,800 389,800 390,800 391,800 392,800 393,800 394,800 395,800 396,800 397,800 398,800 399,600 400,990 401,600 402,600 403,600 404,600 405,600 406,600 407,600 408,600 409,600 410,600 411,600 412,600 413,600 414,600 415,600 416,600 417,600 418,600 419,600 420,600 421,600 422,923 423,600 424,600 425,600 426,600 427,600 428,600 429,600 430,993 431,600 432,600 433,600 434,600 435,600 436,600 437,600 438,600 439,600 440,932 441,600 442,600 443,600 444,600 445,600 446,600 447,600 448,600 449,600 450,600 451,600 452,600 453,600 454,600 455,600 456,600 457,600 458,600 459,600 460,600 461,600 462,600 463,600 464,600 465,600 466,920 467,600 468,600 469,600 470,600 471,600 472,600 473,600 474,600 475,600 476,908 477,600 478,907 479,600 480,600 481,600 482,600 483,600 484,600 485,600 486,600 487,600 488,600 489,600 490,600 491,600 492,600 493,600 494,600 495,600 496,600 497,600 498,600 499,600 500,600 501,600 502,600 503,934 504,600 505,600 506,600 507,600 508,600 509,600 510,600 511,600 512,600 513,600 514,600 515,904 516,600 517,600 518,600 519,913 520,600 521,600 522,600 523,600 524,600 525,600 526,600 527,600 528,962 529,600 530,600 531,600 532,600 533,600 534,600 535,600 536,600 537,600 538,600 539,600 540,600 541,600 542,600 543,600 544,600 545,600 546,600 547,600 548,600 549,986 550,600 551,600 552,980 553,600 554,600 555,600 556,600 557,600 558,600 559,600 560,600 561,600 562,600 563,600 564,600 565,600 566,600 567,923 568,600 569,600 570,600 571,600 572,600 573,600 574,600 575,600 576,600 577,906 578,600 579,600 580,600 581,600 582,600 583,600 584,600 585,600 586,600 587,600 588,600 589,600 590,600 591,600 592,600 593,600 594,600 595,600 596,600 597,600 598,600 599,400 600,400 601,400 602,400 603,400 604,400 605,400 606,400 607,400 608,400 609,400 610,400 611,400 612,400 613,400 614,400 615,400 616,400 617,400 618,400 619,1000 620,400 621,400 622,400 623,400 624,400 625,400 626,400 627,400 628,400 629,400 630,400 631,400 632,400 633,400 634,400 635,400 636,400 637,400 638,400 639,400 640,400 641,400 642,400 643,400 644,400 645,400 646,400 647,400 648,400 649,400 650,906 651,400 652,400 653,400 654,400 655,400 656,400 657,400 658,400 659,952 660,400 661,400 662,400 663,977 664,400 665,400 666,400 667,400 668,1000 669,400 670,400 671,400 672,400 673,400 674,986 675,400 676,400 677,400 678,400 679,400 680,400 681,400 682,400 683,400 684,400 685,400 686,400 687,400 688,972 689,916 690,400 691,400 692,400 693,400 694,400 695,400 696,400 697,400 698,400 699,400 700,400 701,400 702,400 703,400 704,400 705,400 706,400 707,400 708,400 709,400 710,400 711,950 712,400 713,400 714,400 715,400 716,400 717,400 718,400 719,920 720,400 721,400 722,400 723,400 724,400 725,400 726,400 727,400 728,400 729,400 730,400 731,400 732,400 733,400 734,400 735,400 736,400 737,400 738,400 739,400 740,400 741,400 742,400 743,400 744,400 745,936 746,400 747,400 748,400 749,400 750,400 751,400 752,400 753,400 754,400 755,400 756,400 757,912 758,400 759,400 760,400 761,400 762,400 763,400 764,953 765,400 766,400 767,400 768,400 769,919 770,400 771,400 772,400 773,400 774,400 775,400 776,400 777,400 778,907 779,400 780,400 781,400 782,400 783,400 784,400 785,400 786,400 787,400 788,400 789,400 790,400 791,988 792,400 793,400 794,400 795,400 796,400 797,400 798,400 799,200 800,200 801,200 802,200 803,200 804,200 805,200 806,200 807,200 808,200 809,200 810,200 811,200 812,910 813,200 814,200 815,200 816,200 817,200 818,200 819,200 820,200 821,200 822,200 823,200 824,200 825,200 826,200 827,200 828,200 829,200 830,200 831,200 832,200 833,200 834,200 835,200 836,200 837,200 838,200 839,200 840,200 841,200 842,200 843,200 844,200 845,200 846,200 847,200 848,200 849,200 850,200 851,200 852,200 853,200 854,200 855,200 856,200 857,200 858,200 859,200 860,200 861,200 862,200 863,200 864,200 865,200 866,200 867,200 868,200 869,200 870,200 871,200 872,200 873,200 874,200 875,200 876,200 877,200 878,200 879,200 880,200 881,200 882,200 883,200 884,200 885,200 886,200 887,956 888,200 889,200 890,959 891,200 892,200 893,200 894,200 895,200 896,200 897,200 898,200 899,200 900,200 901,200 902,200 903,200 904,200 905,200 906,200 907,200 908,200 909,200 910,200 911,200 912,200 913,200 914,200 915,932 916,200 917,200 918,200 919,200 920,200 921,200 922,200 923,200 924,200 925,200 926,200 927,200 928,200 929,200 930,200 931,200 932,200 933,200 934,200 935,200 936,200 937,200 938,200 939,200 940,200 941,200 942,200 943,200 944,200 945,200 946,200 947,200 948,200 949,200 950,912 951,200 952,200 953,200 954,200 955,200 956,200 957,200 958,200 959,200 960,200 961,200 962,200 963,200 964,200 965,200 966,200 967,200 968,200 969,200 970,200 971,200 972,987 973,200 974,200 975,200 976,200 977,200 978,200 979,200 980,200 981,200 982,200 983,200 984,200 985,200 986,200 987,200 988,200 989,200 990,200 991,200 992,200 993,200 994,200 995,200 996,200 997,922 998,200 999,0"/></g>
</svg>