<?xml version="1.0" standalone="no"?><!DOCTYPE svg PUBLIC "-//W3C//DTD SVG 1.1//EN" "http://www.w3.org/Graphics/SVG/1.1/DTD/svg11.dtd"><svg version="1.1" width="852" height="828" xmlns="http://www.w3.org/2000/svg"><rect height="100%" width="100%" fill="#f3f3f3"/><g transform="translate(40,20) scale(8,4)" fill="none" stroke="blue" stroke-width="1"><polyline points="0,123 1,83 2,44 3,91 4,82 5,101 6,30 7,120 8,109 9,69 10,29 11,50 12,138 13,49 14,45 15,71 16,86 17,147 18,147 19,103 20,82 21,129 22,131 23,17 24,196 25,11 26,45 27,77 28,6 29,185 30,40 31,9 32,52 33,33 34,119 35,4 36,197 37,87 38,48 39,83 40,110 41,153 42,121 43,19 44,78 45,110 46,129 47,197 48,175 49,20 50,47 51,109 52,123 53,45 54,178 55,97 56,20 57,103 58,41 59,93 60,167 61,90 62,0 63,19 64,103 65,74 66,78 67,117 68,28 69,116 70,94 71,31 72,33 73,150 74,19 75,104 76,108 77,113 78,134 79,74 80,103 81,119 82,25 83,66 84,25 85,84 86,75 87,171 88,185 89,7 90,121 91,5 92,157 93,129 94,69 95,59 96,68 97,177 98,107 99,56"/></g><g stroke="grey" stroke-dasharray="6" stroke-width="0.5"><line x1="40" y1="20" x2="100%" y2="20"/><line x1="40" y1="180" x2="100%" y2="180"/><line x1="40" y1="330" x2="100%" y2="330"/><line x1="40" y1="490" x2="100%" y2="490"/><line x1="40" y1="650" x2="100%" y2="650"/><line x1="200" y1="0" x2="200" y2="808"/><line x1="360" y1="0" x2="360" y2="808"/><line x1="510" y1="0" x2="510" y2="808"/><line x1="670" y1="0" x2="670" y2="808"/><line x1="832" y1="0" x2="832" y2="808"/></g><g fill="none" stroke="black" stroke-width="1"><line x1="0" y1="808" x2="100%" y2="808"/><line x1="40" y1="0" x2="40" y2="100%"/></g><g fill="grey" stroke="transparent"><text x="200" y="822" text-anchor="middle">20</text><text x="360" y="822" text-anchor="middle">40</text><text x="510" y="822" text-anchor="middle">60</text><text x="670" y="822" text-anchor="middle">80</text><text x="832" y="822" text-anchor="middle">100</text><text x="35" y="25" text-anchor="end">247</text><text x="35" y="185" text-anchor="end">210</text><text x="35" y="335" text-anchor="end">170</text><text x="35" y="495" text-anchor="end">130</text><text x="35" y="655" text-anchor="end">90</text><text x="35" y="805" text-anchor="end">50</text><text x="0" y="0" text-anchor="">0</text></g></svg>